Coordinates
version=1
nRows=24
nColumns=24
inDegrees=yes

Units are S.I. units (second, meters, Newtons, ...)
Angles are in degrees.

endheader
time	pelvis_tilt	pelvis_list	pelvis_rotation	pelvis_tx	pelvis_ty	pelvis_tz	hip_flexion_r	hip_adduction_r	hip_rotation_r	knee_angle_r	ankle_angle_r	subtalar_angle_r	mtp_angle_r	hip_flexion_l	hip_adduction_l	hip_rotation_l	knee_angle_l	ankle_angle_l	subtalar_angle_l	mtp_angle_l	lumbar_extension	lumbar_bending	lumbar_rotation
      4.51000000	     -9.07078815	      2.08586109	     -4.83886970	     -1.94717333	     -0.01126878	      0.41510371	     33.98765128	     -1.13960128	     -5.40316252	    -45.81279697	    -13.08585485	    -18.52580770	      7.30333337	      6.02962660	      5.10050185	     10.25163446	    -11.00859233	      2.65861602	     -2.56585568	      4.17560661	      7.04582490	     -1.45882409	     -0.80745513
      4.51500000	     -9.13436169	      1.97087964	     -4.57965716	     -1.94183575	     -0.01157661	      0.41493823	     34.20843608	     -1.13542989	     -5.81365870	    -44.11573814	    -12.61722492	    -17.82715949	      7.55250734	      5.61668110	      5.00453025	     10.48526065	    -10.82533414	      2.87632719	     -2.43457159	      4.19675253	      7.02644034	     -1.42631280	     -1.03011752
      4.52000000	     -9.19541097	      1.86118681	     -4.31570419	     -1.93650385	     -0.01189965	      0.41479966	     34.38559259	     -1.14326328	     -6.22803887	    -42.34164906	    -12.12773490	    -17.01257452	      7.87091775	      5.20780939	      4.90846141	     10.70483029	    -10.65093507	      3.09182378	     -2.28049770	      4.22067506	      7.00366178	     -1.40729329	     -1.24440987
      4.52500000	     -9.25586886	      1.75864826	     -4.04433254	     -1.93116866	     -0.01223587	      0.41467734	     34.51770731	     -1.16138076	     -6.63072796	    -40.49188000	    -11.62995225	    -16.08550254	      8.23278701	      4.80775406	      4.81659603	     10.90052663	    -10.49018231	      3.30425818	     -2.10848580	      4.24865519	      6.97660676	     -1.39806563	     -1.44569285
      4.53000000	     -9.31191282	      1.66455977	     -3.76612047	     -1.92581162	     -0.01258266	      0.41458013	     34.60056176	     -1.18901831	     -7.01669098	    -38.57541117	    -11.12458779	    -15.04695805	      8.61774828	      4.40891866	      4.72937913	     11.06493689	    -10.33704269	      3.51365644	     -1.91533911	      4.28321433	      6.94776231	     -1.40022303	     -1.65623696
      4.53500000	     -9.37557500	      1.58061199	     -3.48149647	     -1.92042739	     -0.01296034	      0.41454417	     34.65071214	     -1.22479771	     -7.39137012	    -36.60434995	    -10.61786607	    -13.91393221	      9.01923835	      4.02013084	      4.64205564	     11.22160332	    -10.18604173	      3.72617489	     -1.68536076	      4.34914413	      6.92835605	     -1.42718076	     -1.84466159
      4.54000000	     -9.41806331	      1.51473869	     -3.18139601	     -1.91503476	     -0.01332990	      0.41449783	     34.63409430	     -1.27898183	     -7.70910283	    -34.58327079	    -10.11168178	    -12.68812020	      9.39278715	      3.62300262	      4.57414313	     11.35375422	    -10.05745598	      3.93088034	     -1.42436581	      4.43003377	      6.88739262	     -1.46855610	     -2.09161513
      4.54500000	     -9.48625803	      1.45462993	     -2.89203776	     -1.90954085	     -0.01374646	      0.41448242	     34.60805654	     -1.33812548	     -8.05013699	    -32.53039560	     -9.65192490	    -11.42143311	      9.74313279	      3.24018443	      4.50227068	     11.46699937	     -9.91059468	      4.12877572	     -1.14234976	      4.54446281	      6.89098710	     -1.51568850	     -2.25833765
      4.55000000	     -9.50310721	      1.42598489	     -2.55284636	     -1.90409318	     -0.01412818	      0.41446271	     34.48827137	     -1.44678076	     -8.35003241	    -30.45462617	     -9.17039929	    -10.07372173	     10.04600690	      2.83567600	      4.46655346	     11.57537721	     -9.81524339	      4.32135684	     -0.81446022	      4.68887954	      6.82524796	     -1.61162482	     -2.53431029
      4.55500000	     -9.52435587	      1.40114046	     -2.22019886	     -1.89855979	     -0.01452639	      0.41446331	     34.33877041	     -1.55761360	     -8.66084469	    -28.36848040	     -8.74813505	     -8.71971184	     10.27006673	      2.42753413	      4.42692639	     11.67703247	     -9.71273936	      4.50144828	     -0.46970490	      4.85224278	      6.77876488	     -1.70751287	     -2.76817246
      4.56000000	     -9.53936374	      1.38738598	     -1.88124462	     -1.89297277	     -0.01493360	      0.41445480	     34.14929820	     -1.68322124	     -8.97375843	    -26.28006778	     -8.36591323	     -7.37208736	     10.43100122	      2.02106695	      4.39713205	     11.77096863	     -9.63113413	      4.66742507	     -0.10864697	      5.04165672	      6.73184777	     -1.81130640	     -3.00578919
      4.56500000	     -9.54356242	      1.38208231	     -1.53272054	     -1.88732935	     -0.01534395	      0.41447079	     33.91928577	     -1.81973279	     -9.30024443	    -24.20513542	     -8.02297258	     -6.04784009	     10.52810231	      1.60866106	      4.37014372	     11.86030253	     -9.56419463	      4.82041293	      0.26943897	      5.25512769	      6.68140674	     -1.92747521	     -3.25244475
      4.57000000	     -9.53294334	      1.38412462	     -1.17696555	     -1.88163851	     -0.01574975	      0.41448835	     33.64840856	     -1.96506006	     -9.63673653	    -22.15619762	     -7.72009987	     -4.76112971	     10.54981207	      1.19021705	      4.34724753	     11.95456197	     -9.52204622	      4.96090718	      0.66259213	      5.48999506	      6.61988228	     -2.04827854	     -3.50890498
      4.57500000	     -9.54732339	      1.37867259	     -0.84205487	     -1.87585816	     -0.01619028	      0.41455353	     33.38556394	     -2.08729860	     -9.98195808	    -20.14351979	     -7.49798710	     -3.54003131	     10.54924655	      0.79463346	      4.30633308	     12.05594955	     -9.48549548	      5.08918975	      1.05807526	      5.73729439	      6.59887373	     -2.15420940	     -3.73125136
      4.58000000	     -9.51277543	      1.39024996	     -0.46317495	     -1.87008184	     -0.01659538	      0.41458412	     33.05194859	     -2.24389393	    -10.34193217	    -18.18634168	     -7.25669881	     -2.37446141	     10.47148286	      0.37907521	      4.28515000	     12.16623235	     -9.50780850	      5.21327960	      1.48044866	      6.01597263	      6.52123896	     -2.28459435	     -4.02153604
      4.58500000	     -9.48015518	      1.39855108	     -0.09768614	     -1.86423176	     -0.01701087	      0.41466649	     32.71158167	     -2.38063723	    -10.70006051	    -16.30014412	     -7.05225850	     -1.27741335	     10.32494833	     -0.02840966	      4.25249046	     12.27645210	     -9.55203932	      5.32395208	      1.89952689	      6.29919490	      6.45619260	     -2.40659518	     -4.30401242
      4.59000000	     -9.45467367	      1.41125654	      0.26610985	     -1.85834536	     -0.01744663	      0.41479035	     32.37583081	     -2.50935720	    -11.02692649	    -14.49708043	     -6.87791337	     -0.26901819	     10.13495489	     -0.41184645	      4.21879502	     12.39171910	     -9.63254225	      5.42293518	      2.31373761	      6.58709377	      6.40466047	     -2.53584399	     -4.58792118
      4.59500000	     -9.41747776	      1.41197130	      0.62892560	     -1.85239241	     -0.01785882	      0.41490290	     32.02703634	     -2.62327743	    -11.36856191	    -12.79632226	     -6.72338466	      0.71086151	      9.90188284	     -0.79436971	      4.16850993	     12.50627343	     -9.74481062	      5.51273441	      2.75314857	      6.89778500	      6.34957206	     -2.63936905	     -4.89244499
      4.60000000	     -9.39374508	      1.40879922	      0.98134534	     -1.84639846	     -0.01828967	      0.41506652	     31.69712766	     -2.71696321	    -11.65694345	    -11.20282887	     -6.59927422	      1.60847346	      9.64340351	     -1.14413010	      4.10909556	     12.62314173	     -9.89756327	      5.59342928	      3.18272238	      7.20923738	      6.31622084	     -2.73784817	     -5.18973254
      4.60500000	     -9.38059906	      1.39384039	      1.32964661	     -1.84035989	     -0.01872651	      0.41525486	     31.38410471	     -2.79025018	    -11.90493554	     -9.72604679	     -6.50670231	      2.43697233	      9.38139135	     -1.46164388	      4.03351321	     12.74193443	    -10.09463743	      5.66862613	      3.62048127	      7.53276238	      6.30167348	     -2.82204824	     -5.49273990
      4.61000000	     -9.35320697	      1.34283623	      1.64003266	     -1.83420967	     -0.01913892	      0.41548209	     31.06310581	     -2.80719805	    -12.13744688	     -8.38251154	     -6.39330074	      3.30181306	      9.09040152	     -1.78366933	      3.91635672	     12.79858510	    -10.32061913	      5.73764342	      4.06158569	      7.87807265	      6.29197564	     -2.85370063	     -5.76704420
      4.61500000	     -9.38566546	      1.33258442	      2.00003463	     -1.82815929	     -0.01958887	      0.41569385	     30.81607692	     -2.88170332	    -12.24323003	     -7.15662043	     -6.40904852	      3.92911636	      8.87069102	     -1.99737493	      3.84376822	     12.97022941	    -10.62192308	      5.78405681	      4.51096673	      8.20573230	      6.33107614	     -2.93985167	     -6.10829929
      4.62000000	     -9.36500083	      1.23234600	      2.29937234	     -1.82189685	     -0.01996539	      0.41595199	     30.51191483	     -2.84174241	    -12.40595306	     -6.07234210	     -6.34379815	      4.72551354	      8.65190639	     -2.26592890	      3.66646893	     12.99154730	    -10.93515195	      5.84982104	      5.02403448	      8.62983679	      6.35021159	     -2.91059904	     -6.39437789
      4.62500000	     -9.41340698	      1.19442246	      2.66057474	     -1.81574351	     -0.02038402	      0.41615393	     30.28812858	     -2.89384765	    -12.40567748	     -5.11478576	     -6.37729888	      5.27121439	      8.50852686	     -2.41014806	      3.56675292	     13.14891894	    -11.33900242	      5.85714133	      5.48292503	      8.98234713	      6.42722603	     -2.95728321	     -6.75405444
